<svg width="106" height="85" viewBox="0 0 106 85" fill="none" xmlns="http://www.w3.org/2000/svg">
<path d="M58.786 12.3176H54.5827L56.5641 36.589L60.211 37.0697L71.1087 18.5047C71.1087 18.5047 67.11 39.132 67.0454 39.2863C66.9808 39.4405 73.2552 42.1054 73.2552 42.1054L76.6509 38.3214L73.3629 35.1436L87.2507 31.9155L83.5248 44.7704L80.0358 41.675L76.0873 45.5272C76.9596 46.3521 78.8584 49.4439 78.8584 49.4439L105.503 40.3013L82.1105 56.0435C82.9828 57.2092 83.8586 61.2155 83.8586 61.2155H90.1187L90.1977 57.1195C92.2616 60.3476 98.0479 63.5326 98.0479 63.5326C93.2918 64.8417 89.3254 69.5834 89.3254 69.5834L90.1079 65.4694L84.1637 65.4013L86.0661 80.1069L82.1177 75.6127L80.183 73.4033C80.183 73.4033 84.3001 42.0445 51.7864 41.84C16.8068 41.6248 23.4294 73.4033 23.4294 73.4033L20.4106 79.0057L17.6683 84.0917L17.9554 65.9787L13.0809 65.2614L13.1957 69.7986L0.496094 63.2958L13.8203 56.3878L13.2245 60.0463L18.4436 59.1711L19.0359 56.2838L2.40212 43.1886L21.6741 51.022C21.7531 50.6634 24.9262 46.0759 24.9262 46.0759L21.8321 41.0545L18.659 44.218L15.572 32.1845L29.3736 35.2081L25.6944 37.8229L31.9437 41.6714C32.2093 41.1227 34.2123 40.0933 34.2123 40.0933L31.2976 17.8878L40.3072 38.1672C41.3374 37.7547 45.3002 37.1521 45.3002 37.1521L47.917 12.2495L43.8716 12.5256L51.5208 0.908203L58.786 12.3176Z" fill="white"/>
</svg>
